<svg width="1394" height="189" viewBox="0 0 1394 189" fill="none" xmlns="http://www.w3.org/2000/svg">
<mask id="mask0_1_5771" style="mask-type:alpha" maskUnits="userSpaceOnUse" x="0" y="0" width="1394" height="189">
<rect x="0.12793" width="1393.57" height="189" fill="white"/>
</mask>
<g mask="url(#mask0_1_5771)">
<path d="M36.7402 142C16.611 146.8 1.51421 148.667 -3.51807 149V190H1415.58V40C1394.9 50.6667 1345.47 70.8 1313.26 66C1273 60 1227.71 61 1197.52 66C1167.33 71 1148.87 78 1115.33 79C1081.78 80 1091.84 75 1039.84 72C987.841 69 966.034 98 940.873 106C915.712 114 851.969 112 828.485 106C805.001 100 784.872 98 766.421 98C747.969 98 747.969 105 721.13 106C694.291 107 667.452 97 630.549 98C593.646 99 543.323 118 504.742 119C466.161 120 489.645 114 434.29 112C378.935 110 335.322 136 300.096 142C264.87 148 212.87 135 184.354 131C155.837 127 128.999 142 107.192 142C85.3855 142 61.9016 136 36.7402 142Z" fill="#EEF2FF" fill-opacity="0.5" stroke="#FF6477" stroke-width="2"/>
<path d="M46.3587 168.5H-7.1665V196H1413.76V96C1412.09 99.3333 1408.58 106.5 1407.91 108.5C1407.07 111 1392.02 117.5 1384.49 114.5C1376.96 111.5 1361.07 111 1352.71 112.5C1344.34 114 1346.02 111 1330.13 108.5C1314.24 106 1309.22 114 1300.86 115.5C1292.49 117 1279.95 114 1274.09 111L1273.84 110.872C1268.02 107.887 1260.41 103.986 1239.8 103C1218.9 102 1214.71 117.5 1206.35 123C1197.99 128.5 1178.75 125.5 1173.73 124.5C1168.72 123.5 1164.53 120 1148.64 123C1132.75 126 1117.7 136.5 1098.46 137C1079.23 137.5 1062.5 129.5 1049.12 129.5C1035.74 129.5 1039.92 131 1021.52 133.5C1003.12 136 971.341 129.5 960.469 127C949.597 124.5 935.379 127 927.852 129.5C920.325 132 893.562 132.5 886.035 131C878.508 129.5 856.764 126 851.746 129.5C846.728 133 824.147 127 817.456 127C810.766 127 814.111 123.5 796.548 121.5C778.985 119.5 767.276 129.5 762.258 131C757.24 132.5 748.041 130 739.677 127C731.314 124 697.025 121 676.953 123.5C656.881 126 655.208 133.5 641.827 134.5C628.445 135.5 622.591 142.5 615.9 142.5C609.21 142.5 605.028 142.5 599.174 140.5C593.319 138.5 579.102 140.5 573.247 142.5C567.393 144.5 557.357 145.5 545.649 146C533.94 146.5 527.249 142 518.05 140.5C508.85 139 496.305 138 472.888 138.5C449.47 139 450.307 148 426.053 151.5C401.8 155 384.237 150.5 367.51 149C350.783 147.5 336.566 154.5 329.039 157C321.512 159.5 304.785 157 288.058 154.5C271.332 152 264.641 157 262.132 157C259.623 157 247.915 163.5 234.533 157C221.152 150.5 215.298 152.5 210.28 152.5C205.262 152.5 201.916 156 194.389 154.5C186.862 153 186.862 148.5 174.317 149C161.772 149.5 152.573 160 148.391 161.5C144.209 163 135.01 165 128.319 165.5C121.629 166 121.629 163.5 101.557 162.5C81.4846 161.5 69.776 168.5 46.3587 168.5Z" fill="white" fill-opacity="0.04"/>
</g>
</svg>
