<svg width="24" height="25" viewBox="0 0 24 25" fill="none" xmlns="http://www.w3.org/2000/svg">
<g opacity="0.01">
<path d="M18 2.75H9C8.60218 2.75 8.22064 2.90804 7.93934 3.18934C7.65804 3.47064 7.5 3.85218 7.5 4.25V5.75H6C5.60218 5.75 5.22064 5.90804 4.93934 6.18934C4.65804 6.47064 4.5 6.85218 4.5 7.25V21.5C4.5 21.6378 4.53796 21.7729 4.60972 21.8906C4.68149 22.0082 4.78428 22.1038 4.90681 22.1669C5.02934 22.2299 5.16688 22.258 5.30432 22.248C5.44177 22.2381 5.5738 22.1904 5.68594 22.1103L10.5 18.6716L15.315 22.1103C15.4271 22.1901 15.5591 22.2376 15.6964 22.2474C15.8337 22.2573 15.971 22.2291 16.0934 22.1661C16.2158 22.1031 16.3184 22.0076 16.3902 21.8901C16.4619 21.7726 16.4999 21.6377 16.5 21.5V17.8147L18.3141 19.1103C18.4262 19.1904 18.5582 19.2381 18.6957 19.248C18.8331 19.258 18.9707 19.2299 19.0932 19.1669C19.2157 19.1038 19.3185 19.0082 19.3903 18.8906C19.462 18.7729 19.5 18.6378 19.5 18.5V4.25C19.5 3.85218 19.342 3.47064 19.0607 3.18934C18.7794 2.90804 18.3978 2.75 18 2.75ZM15 20.0431L10.935 17.1369C10.8078 17.046 10.6554 16.9972 10.4991 16.9972C10.3427 16.9972 10.1903 17.046 10.0631 17.1369L6 20.0422V7.25H15V20.0431ZM18 17.0431L16.5 15.9688V7.25C16.5 6.85218 16.342 6.47064 16.0607 6.18934C15.7794 5.90804 15.3978 5.75 15 5.75H9V4.25H18V17.0431Z" fill="#121212"/>
</g>
</svg>
