<svg width="24" height="25" viewBox="0 0 24 25" fill="none" xmlns="http://www.w3.org/2000/svg">
<path d="M15.5312 19.4693C15.6009 19.539 15.6562 19.6217 15.6939 19.7128C15.7316 19.8038 15.751 19.9014 15.751 19.9999C15.751 20.0985 15.7316 20.1961 15.6939 20.2871C15.6562 20.3781 15.6009 20.4609 15.5312 20.5306C15.4615 20.6002 15.3788 20.6555 15.2878 20.6932C15.1967 20.7309 15.0991 20.7503 15.0006 20.7503C14.902 20.7503 14.8045 20.7309 14.7134 20.6932C14.6224 20.6555 14.5396 20.6002 14.47 20.5306L6.96996 13.0306C6.90023 12.9609 6.84491 12.8782 6.80717 12.7871C6.76943 12.6961 6.75 12.5985 6.75 12.4999C6.75 12.4014 6.76943 12.3038 6.80717 12.2127C6.84491 12.1217 6.90023 12.039 6.96996 11.9693L14.47 4.4693C14.6107 4.32857 14.8016 4.24951 15.0006 4.24951C15.1996 4.24951 15.3905 4.32857 15.5312 4.4693C15.6719 4.61003 15.751 4.80091 15.751 4.99993C15.751 5.19895 15.6719 5.38982 15.5312 5.53055L8.5609 12.4999L15.5312 19.4693Z" fill="#121212"/>
</svg>
