<svg width="120" height="120" viewBox="0 0 120 120" fill="none" xmlns="http://www.w3.org/2000/svg">
<path d="M113.619 69.9384L113.584 69.9558C109.47 73.1102 107.728 78.4781 109.192 83.4455L109.209 83.4804C111.544 91.3755 105.758 99.3401 97.5319 99.5494H97.4972C92.3034 99.6888 87.7371 103 86.0116 107.898V107.915C83.2577 115.688 73.8815 118.738 67.1018 114.049C62.8919 111.175 57.3267 111.025 52.8975 114.049H52.8801C46.1006 118.72 36.724 115.688 33.9876 107.897C33.1431 105.507 31.5929 103.429 29.5422 101.939C27.4915 100.448 25.0367 99.6148 22.5023 99.5491H22.4674C14.2413 99.3398 8.45482 91.3753 10.7904 83.4801L10.8077 83.4452C12.2714 78.4779 10.5286 73.11 6.41576 69.9555L6.38084 69.9382C-0.154942 64.9186 -0.154942 55.0891 6.38084 50.0698L6.41576 50.0524C10.5286 46.898 12.2714 41.5298 10.7904 36.5627V36.5278C8.43725 28.6329 14.2411 20.6679 22.4674 20.4588H22.5023C27.6785 20.3194 32.2622 17.0079 33.9876 12.1106V12.0933C36.7237 4.32022 46.1006 1.2703 52.8801 5.95874H52.8975C57.1673 8.90413 62.8141 8.90413 67.1018 5.95874C73.9497 1.22976 83.2739 4.36687 86.0116 12.0933V12.1106C87.7371 16.9905 92.3032 20.3196 97.4972 20.4588H97.5319C105.758 20.6679 111.544 28.6329 109.209 36.5278L109.192 36.5627C107.728 41.5298 109.47 46.898 113.584 50.0524L113.619 50.0698C120.154 55.0891 120.154 64.9188 113.619 69.9384Z" fill="#FF614C"/>
<path d="M60.0001 92.4649C77.93 92.4649 92.465 77.9298 92.465 60C92.465 42.0701 77.93 27.535 60.0001 27.535C42.0702 27.535 27.5352 42.0701 27.5352 60C27.5352 77.9298 42.0702 92.4649 60.0001 92.4649Z" fill="#FF8B7B"/>
<path opacity="0.2" d="M84.927 39.2187C79.3116 34.5991 72.1273 31.8225 64.2954 31.8225C46.3657 31.8225 31.8228 46.3655 31.8228 64.2952C31.8228 72.127 34.5994 79.3113 39.2187 84.9267C32.0841 78.9752 27.5396 70.0228 27.5396 59.9995C27.5396 42.0696 42.0701 27.5393 59.9998 27.5393C70.0231 27.5393 78.9755 32.0838 84.927 39.2187Z" fill="white"/>
<path d="M59.373 69.5679C59.373 69.8331 59.2677 70.0874 59.0802 70.275C58.8926 70.4625 58.6383 70.5679 58.373 70.5679H51.373C50.8426 70.5679 50.3339 70.3572 49.9588 69.9821C49.5838 69.607 49.373 69.0983 49.373 68.5679V48.5679C49.373 48.0374 49.5838 47.5287 49.9588 47.1537C50.3339 46.7786 50.8426 46.5679 51.373 46.5679H58.373C58.6383 46.5679 58.8926 46.6732 59.0802 46.8608C59.2677 47.0483 59.373 47.3027 59.373 47.5679C59.373 47.8331 59.2677 48.0874 59.0802 48.275C58.8926 48.4625 58.6383 48.5679 58.373 48.5679H51.373V68.5679H58.373C58.6383 68.5679 58.8926 68.6732 59.0802 68.8608C59.2677 69.0483 59.373 69.3027 59.373 69.5679ZM73.0805 57.8604L68.0805 52.8604C67.8929 52.6727 67.6384 52.5673 67.373 52.5673C67.1077 52.5673 66.8532 52.6727 66.6655 52.8604C66.4779 53.048 66.3725 53.3025 66.3725 53.5679C66.3725 53.8332 66.4779 54.0877 66.6655 54.2754L69.9593 57.5679H58.373C58.1078 57.5679 57.8535 57.6732 57.6659 57.8608C57.4784 58.0483 57.373 58.3027 57.373 58.5679C57.373 58.8331 57.4784 59.0874 57.6659 59.275C57.8535 59.4625 58.1078 59.5679 58.373 59.5679H69.9593L66.6655 62.8604C66.4779 63.048 66.3725 63.3025 66.3725 63.5679C66.3725 63.8332 66.4779 64.0877 66.6655 64.2754C66.8532 64.463 67.1077 64.5684 67.373 64.5684C67.6384 64.5684 67.8929 64.463 68.0805 64.2754L73.0805 59.2754C73.1735 59.1825 73.2473 59.0722 73.2976 58.9508C73.3479 58.8294 73.3738 58.6993 73.3738 58.5679C73.3738 58.4365 73.3479 58.3063 73.2976 58.1849C73.2473 58.0635 73.1735 57.9532 73.0805 57.8604Z" fill="white"/>
</svg>
