<svg width="55" height="55" viewBox="0 0 55 55" fill="none" xmlns="http://www.w3.org/2000/svg">
<path d="M0 4C0 1.79086 1.79086 0 4 0H51C53.2091 0 55 1.79086 55 4V51C55 53.2091 53.2091 55 51 55H4C1.79086 55 0 53.2091 0 51V4Z" fill="#FFD0D0"/>
<path d="M36.3379 25.9932C36.3379 26.2584 36.2325 26.5127 36.045 26.7003C35.8575 26.8878 35.6031 26.9932 35.3379 26.9932H30.3379C30.0727 26.9932 29.8183 26.8878 29.6308 26.7003C29.4432 26.5127 29.3379 26.2584 29.3379 25.9932C29.3379 25.7279 29.4432 25.4736 29.6308 25.2861C29.8183 25.0985 30.0727 24.9932 30.3379 24.9932H35.3379C35.6031 24.9932 35.8575 25.0985 36.045 25.2861C36.2325 25.4736 36.3379 25.7279 36.3379 25.9932ZM35.3379 28.9932H30.3379C30.0727 28.9932 29.8183 29.0985 29.6308 29.2861C29.4432 29.4736 29.3379 29.7279 29.3379 29.9932C29.3379 30.2584 29.4432 30.5127 29.6308 30.7003C29.8183 30.8878 30.0727 30.9932 30.3379 30.9932H35.3379C35.6031 30.9932 35.8575 30.8878 36.045 30.7003C36.2325 30.5127 36.3379 30.2584 36.3379 29.9932C36.3379 29.7279 36.2325 29.4736 36.045 29.2861C35.8575 29.0985 35.6031 28.9932 35.3379 28.9932ZM40.3379 18.9932V36.9932C40.3379 37.5236 40.1272 38.0323 39.7521 38.4074C39.377 38.7824 38.8683 38.9932 38.3379 38.9932H16.3379C15.8075 38.9932 15.2987 38.7824 14.9237 38.4074C14.5486 38.0323 14.3379 37.5236 14.3379 36.9932V18.9932C14.3379 18.4627 14.5486 17.954 14.9237 17.579C15.2987 17.2039 15.8075 16.9932 16.3379 16.9932H38.3379C38.8683 16.9932 39.377 17.2039 39.7521 17.579C40.1272 17.954 40.3379 18.4627 40.3379 18.9932ZM38.3379 36.9932V18.9932H16.3379V36.9932H38.3379ZM28.3054 32.7432C28.3717 33.0001 28.3332 33.2728 28.1984 33.5014C28.0636 33.73 27.8436 33.8956 27.5866 33.9619C27.3297 34.0282 27.057 33.9897 26.8284 33.8549C26.5998 33.7202 26.4342 33.5001 26.3679 33.2432C26.0391 31.9607 24.7354 30.9932 23.3366 30.9932C21.9379 30.9932 20.6354 31.9607 20.3054 33.2432C20.2391 33.5001 20.0734 33.7202 19.8449 33.8549C19.6163 33.9897 19.3436 34.0282 19.0866 33.9619C18.8297 33.8956 18.6096 33.73 18.4749 33.5014C18.3401 33.2728 18.3016 33.0001 18.3679 32.7432C18.6924 31.5354 19.4595 30.4939 20.5166 29.8257C19.9549 29.2672 19.5715 28.5545 19.4153 27.7779C19.259 27.0014 19.3368 26.1959 19.6388 25.4636C19.9409 24.7313 20.4536 24.1052 21.1119 23.6646C21.7702 23.224 22.5445 22.9888 23.3366 22.9888C24.1288 22.9888 24.9031 23.224 25.5614 23.6646C26.2197 24.1052 26.7324 24.7313 27.0344 25.4636C27.3365 26.1959 27.4143 27.0014 27.258 27.7779C27.1018 28.5545 26.7184 29.2672 26.1566 29.8257C27.215 30.4929 27.9827 31.5347 28.3066 32.7432H28.3054ZM23.3379 28.9932C23.7335 28.9932 24.1201 28.8759 24.449 28.6561C24.7779 28.4363 25.0343 28.124 25.1856 27.7585C25.337 27.3931 25.3766 26.9909 25.2995 26.603C25.2223 26.215 25.0318 25.8587 24.7521 25.579C24.4724 25.2992 24.116 25.1088 23.7281 25.0316C23.3401 24.9544 22.938 24.994 22.5725 25.1454C22.2071 25.2968 21.8947 25.5531 21.675 25.882C21.4552 26.2109 21.3379 26.5976 21.3379 26.9932C21.3379 27.5236 21.5486 28.0323 21.9237 28.4074C22.2988 28.7824 22.8075 28.9932 23.3379 28.9932Z" fill="#FF1C60"/>
</svg>
