<svg width="55" height="55" viewBox="0 0 55 55" fill="none" xmlns="http://www.w3.org/2000/svg">
<path d="M0 4C0 1.79086 1.79086 0 4 0H51C53.2091 0 55 1.79086 55 4V51C55 53.2091 53.2091 55 51 55H4C1.79086 55 0 53.2091 0 51V4Z" fill="#E0EEFF"/>
<path d="M40.5738 38.3579C38.6701 35.0666 35.7363 32.7066 32.3126 31.5879C34.0061 30.5797 35.3219 29.0435 36.0578 27.2151C36.7938 25.3868 36.9092 23.3674 36.3864 21.4671C35.8636 19.5668 34.7314 17.8906 33.1638 16.696C31.5962 15.5015 29.6797 14.8545 27.7088 14.8545C25.7379 14.8545 23.8215 15.5015 22.2539 16.696C20.6862 17.8906 19.5541 19.5668 19.0313 21.4671C18.5084 23.3674 18.6239 25.3868 19.3598 27.2151C20.0958 29.0435 21.4115 30.5797 23.1051 31.5879C19.6813 32.7054 16.7476 35.0654 14.8438 38.3579C14.774 38.4717 14.7277 38.5984 14.7076 38.7304C14.6876 38.8624 14.6942 38.9971 14.727 39.1266C14.7598 39.256 14.8183 39.3776 14.8988 39.4841C14.9794 39.5906 15.0805 39.6798 15.1961 39.7466C15.3117 39.8134 15.4396 39.8564 15.5721 39.873C15.7046 39.8895 15.8391 39.8794 15.9676 39.8432C16.0961 39.807 16.2161 39.7453 16.3204 39.662C16.4248 39.5786 16.5114 39.4752 16.5751 39.3579C18.9301 35.2879 23.0926 32.8579 27.7088 32.8579C32.3251 32.8579 36.4876 35.2879 38.8426 39.3579C38.9063 39.4752 38.9929 39.5786 39.0972 39.662C39.2016 39.7453 39.3215 39.807 39.4501 39.8432C39.5786 39.8794 39.7131 39.8895 39.8456 39.873C39.9781 39.8564 40.1059 39.8134 40.2216 39.7466C40.3372 39.6798 40.4383 39.5906 40.5188 39.4841C40.5994 39.3776 40.6578 39.256 40.6907 39.1266C40.7235 38.9971 40.7301 38.8624 40.71 38.7304C40.69 38.5984 40.6436 38.4717 40.5738 38.3579ZM20.7088 23.8579C20.7088 22.4734 21.1194 21.12 21.8885 19.9689C22.6577 18.8178 23.751 17.9205 25.0301 17.3907C26.3091 16.8609 27.7166 16.7223 29.0745 16.9924C30.4323 17.2625 31.6796 17.9292 32.6586 18.9081C33.6375 19.8871 34.3042 21.1344 34.5743 22.4923C34.8444 23.8501 34.7058 25.2576 34.176 26.5367C33.6462 27.8158 32.749 28.909 31.5978 29.6782C30.4467 30.4474 29.0933 30.8579 27.7088 30.8579C25.8529 30.8559 24.0736 30.1178 22.7613 28.8054C21.449 27.4931 20.7108 25.7138 20.7088 23.8579Z" fill="#165BAA"/>
</svg>
