<svg width="55" height="55" viewBox="0 0 55 55" fill="none" xmlns="http://www.w3.org/2000/svg">
<path d="M0 4C0 1.79086 1.79086 0 4 0H51C53.2091 0 55 1.79086 55 4V51C55 53.2091 53.2091 55 51 55H4C1.79086 55 0 53.2091 0 51V4Z" fill="#E9E6FF"/>
<path d="M39.5987 20.6208L28.5987 14.6021C28.3048 14.4397 27.9745 14.3545 27.6387 14.3545C27.3029 14.3545 26.9726 14.4397 26.6787 14.6021L15.6787 20.6233C15.3645 20.7952 15.1023 21.0483 14.9194 21.3561C14.7364 21.6639 14.6395 22.0152 14.6387 22.3733V34.3283C14.6395 34.6864 14.7364 35.0377 14.9194 35.3455C15.1023 35.6534 15.3645 35.9064 15.6787 36.0783L26.6787 42.0996C26.9726 42.262 27.3029 42.3472 27.6387 42.3472C27.9745 42.3472 28.3048 42.262 28.5987 42.0996L39.5987 36.0783C39.9128 35.9064 40.175 35.6534 40.358 35.3455C40.5409 35.0377 40.6379 34.6864 40.6387 34.3283V22.3746C40.6385 22.0158 40.5419 21.6638 40.3589 21.3552C40.176 21.0467 39.9134 20.793 39.5987 20.6208ZM27.6387 16.3521L37.6812 21.8521L27.6387 27.3521L17.5962 21.8521L27.6387 16.3521ZM16.6387 23.6021L26.6387 29.0746V39.7983L16.6387 34.3296V23.6021ZM28.6387 39.7983V29.0796L38.6387 23.6021V34.3246L28.6387 39.7983Z" fill="#8823EB"/>
</svg>
