<svg width="55" height="55" viewBox="0 0 55 55" fill="none" xmlns="http://www.w3.org/2000/svg">
<path d="M0 4C0 1.79086 1.79086 0 4 0H51C53.2091 0 55 1.79086 55 4V51C55 53.2091 53.2091 55 51 55H4C1.79086 55 0 53.2091 0 51V4Z" fill="#E6FFEF"/>
<path d="M36.7461 32.6919C36.7444 34.2827 36.1118 35.8078 34.9869 36.9327C33.862 38.0576 32.3369 38.6902 30.7461 38.6919H28.7461V40.6919C28.7461 40.9571 28.6407 41.2115 28.4532 41.399C28.2657 41.5865 28.0113 41.6919 27.7461 41.6919C27.4809 41.6919 27.2265 41.5865 27.039 41.399C26.8515 41.2115 26.7461 40.9571 26.7461 40.6919V38.6919H24.7461C23.1553 38.6902 21.6301 38.0576 20.5053 36.9327C19.3804 35.8078 18.7477 34.2827 18.7461 32.6919C18.7461 32.4267 18.8515 32.1723 19.039 31.9848C19.2265 31.7973 19.4809 31.6919 19.7461 31.6919C20.0113 31.6919 20.2657 31.7973 20.4532 31.9848C20.6407 32.1723 20.7461 32.4267 20.7461 32.6919C20.7461 33.7528 21.1675 34.7702 21.9177 35.5203C22.6678 36.2705 23.6852 36.6919 24.7461 36.6919H30.7461C31.807 36.6919 32.8244 36.2705 33.5745 35.5203C34.3247 34.7702 34.7461 33.7528 34.7461 32.6919C34.7461 31.631 34.3247 30.6136 33.5745 29.8635C32.8244 29.1133 31.807 28.6919 30.7461 28.6919H25.7461C24.1548 28.6919 22.6287 28.0598 21.5035 26.9345C20.3782 25.8093 19.7461 24.2832 19.7461 22.6919C19.7461 21.1006 20.3782 19.5745 21.5035 18.4493C22.6287 17.324 24.1548 16.6919 25.7461 16.6919H26.7461V14.6919C26.7461 14.4267 26.8515 14.1723 27.039 13.9848C27.2265 13.7973 27.4809 13.6919 27.7461 13.6919C28.0113 13.6919 28.2657 13.7973 28.4532 13.9848C28.6407 14.1723 28.7461 14.4267 28.7461 14.6919V16.6919H29.7461C31.3369 16.6935 32.862 17.3262 33.9869 18.4511C35.1118 19.5759 35.7444 21.1011 35.7461 22.6919C35.7461 22.9571 35.6407 23.2115 35.4532 23.399C35.2657 23.5865 35.0113 23.6919 34.7461 23.6919C34.4809 23.6919 34.2265 23.5865 34.039 23.399C33.8514 23.2115 33.7461 22.9571 33.7461 22.6919C33.7461 21.631 33.3247 20.6136 32.5745 19.8635C31.8244 19.1133 30.807 18.6919 29.7461 18.6919H25.7461C24.6852 18.6919 23.6678 19.1133 22.9177 19.8635C22.1675 20.6136 21.7461 21.631 21.7461 22.6919C21.7461 23.7528 22.1675 24.7702 22.9177 25.5203C23.6678 26.2705 24.6852 26.6919 25.7461 26.6919H30.7461C32.3369 26.6935 33.862 27.3262 34.9869 28.4511C36.1118 29.5759 36.7444 31.1011 36.7461 32.6919Z" fill="#18AF50"/>
</svg>
