<svg width="24" height="25" viewBox="0 0 24 25" fill="none" xmlns="http://www.w3.org/2000/svg">
<path d="M4.26007 10.6472C3.98502 12.7527 3.82113 14.8713 3.76907 16.9942C6.64788 18.1967 9.40425 19.6735 12.0001 21.4042C14.5962 19.6734 17.3529 18.1966 20.2321 16.9942C20.18 14.8713 20.0161 12.7527 19.7411 10.6472M19.7411 10.6472C20.6196 10.3519 21.5059 10.0805 22.3991 9.83316C19.1356 7.54541 15.652 5.58905 12.0001 3.99316C8.34807 5.58939 4.86447 7.54608 1.60107 9.83416C2.49435 10.0808 3.38068 10.3519 4.25907 10.6472C6.9277 11.5444 9.51697 12.6622 12.0001 13.9892C14.4828 12.6622 17.0728 11.5444 19.7411 10.6472ZM6.75007 15.5002C6.94899 15.5002 7.13975 15.4211 7.2804 15.2805C7.42106 15.1398 7.50007 14.9491 7.50007 14.7502C7.50007 14.5513 7.42106 14.3605 7.2804 14.2198C7.13975 14.0792 6.94899 14.0002 6.75007 14.0002C6.55116 14.0002 6.3604 14.0792 6.21974 14.2198C6.07909 14.3605 6.00007 14.5513 6.00007 14.7502C6.00007 14.9491 6.07909 15.1398 6.21974 15.2805C6.3604 15.4211 6.55116 15.5002 6.75007 15.5002ZM6.75007 15.5002V11.8252C8.44681 10.7705 10.1994 9.80843 12.0001 8.94316M4.99307 20.4932C5.55105 19.9366 5.99351 19.2752 6.29504 18.547C6.59656 17.8189 6.75121 17.0383 6.75007 16.2502V14.7502" stroke="white" stroke-linecap="round" stroke-linejoin="round"/>
</svg>
