<svg width="24" height="25" viewBox="0 0 24 25" fill="none" xmlns="http://www.w3.org/2000/svg">
<path d="M4.25959 10.6472C3.98453 12.7527 3.82064 14.8713 3.76859 16.9942C6.64739 18.1967 9.40377 19.6735 11.9996 21.4042C14.5957 19.6734 17.3524 18.1966 20.2316 16.9942C20.1795 14.8713 20.0156 12.7527 19.7406 10.6472M19.7406 10.6472C20.6191 10.3519 21.5054 10.0805 22.3986 9.83316C19.1352 7.54541 15.6516 5.58905 11.9996 3.99316C8.34758 5.58939 4.86398 7.54608 1.60059 9.83416C2.49386 10.0808 3.38019 10.3519 4.25859 10.6472C6.92721 11.5444 9.51649 12.6622 11.9996 13.9892C14.4823 12.6622 17.0723 11.5444 19.7406 10.6472ZM6.74959 15.5002C6.9485 15.5002 7.13926 15.4211 7.27992 15.2805C7.42057 15.1398 7.49959 14.9491 7.49959 14.7502C7.49959 14.5513 7.42057 14.3605 7.27992 14.2198C7.13926 14.0792 6.9485 14.0002 6.74959 14.0002C6.55067 14.0002 6.35991 14.0792 6.21926 14.2198C6.0786 14.3605 5.99959 14.5513 5.99959 14.7502C5.99959 14.9491 6.0786 15.1398 6.21926 15.2805C6.35991 15.4211 6.55067 15.5002 6.74959 15.5002ZM6.74959 15.5002V11.8252C8.44632 10.7705 10.1989 9.80843 11.9996 8.94316M4.99259 20.4932C5.55056 19.9366 5.99302 19.2752 6.29455 18.547C6.59608 17.8189 6.75072 17.0383 6.74959 16.2502V14.7502" stroke="#575656" stroke-linecap="round" stroke-linejoin="round"/>
</svg>
