<svg width="75" height="75" viewBox="0 0 75 75" fill="none" xmlns="http://www.w3.org/2000/svg">
<path d="M34.6018 2.49869C36.2672 1.06288 38.7328 1.06287 40.3982 2.49868L46.6142 7.85786C47.4354 8.56591 48.4875 8.94883 49.5717 8.93432L57.7783 8.82452C59.9769 8.79511 61.8657 10.38 62.2185 12.5503L63.5355 20.6513C63.7095 21.7216 64.2692 22.6912 65.1091 23.377L71.4663 28.5679C73.1695 29.9587 73.5976 32.3868 72.4728 34.2762L68.2745 41.3284C67.7198 42.2601 67.5254 43.3627 67.7279 44.428L69.2611 52.4908C69.6719 54.6509 68.4391 56.7862 66.3629 57.5106L58.6138 60.2142C57.5899 60.5714 56.7323 61.291 56.2027 62.2373L52.1946 69.3992C51.1207 71.3181 48.8038 72.1613 46.7478 71.3817L39.0737 68.4717C38.0598 68.0873 36.9402 68.0873 35.9263 68.4717L28.2522 71.3817C26.1962 72.1613 23.8793 71.3181 22.8055 69.3992L18.7973 62.2373C18.2677 61.291 17.4101 60.5714 16.3862 60.2142L8.63706 57.5106C6.56093 56.7862 5.32812 54.6509 5.73888 52.4908L7.27206 44.428C7.47463 43.3627 7.28022 42.2601 6.72553 41.3284L2.52717 34.2762C1.40236 32.3868 1.83051 29.9587 3.5337 28.5679L9.89085 23.377C10.7308 22.6912 11.2905 21.7216 11.4645 20.6513L12.7815 12.5504C13.1343 10.38 15.0231 8.79511 17.2217 8.82452L25.4283 8.93432C26.5125 8.94883 27.5646 8.56591 28.3858 7.85786L34.6018 2.49869Z" fill="#0CC0A0"/>
<path d="M34.5756 39.0125L36.0748 40.5727C36.4683 40.9823 37.1234 40.9823 37.5169 40.5727L48.9518 28.6719C49.5826 28.0153 50.633 28.0153 51.2639 28.6719C51.8601 29.2925 51.8601 30.273 51.2639 30.8935L38.238 44.4502C37.451 45.2693 36.1407 45.2693 35.3537 44.4502L27.8564 36.6474C27.2601 36.0269 27.2601 35.0463 27.8564 34.4258C28.4872 33.7692 29.5376 33.7692 30.1685 34.4258L32.3538 36.7001L34.5756 39.0108V39.0125Z" fill="white"/>
</svg>
