<svg width="20" height="20" viewBox="0 0 20 20" fill="none" xmlns="http://www.w3.org/2000/svg">
<path d="M4.84366 8.32812V3.125C4.84366 3.00068 4.79427 2.88145 4.70636 2.79354C4.61846 2.70564 4.49923 2.65625 4.37491 2.65625C4.25059 2.65625 4.13136 2.70564 4.04345 2.79354C3.95554 2.88145 3.90616 3.00068 3.90616 3.125V8.32812C3.37634 8.43571 2.9 8.72315 2.55786 9.14175C2.21571 9.56035 2.02881 10.0844 2.02881 10.625C2.02881 11.1656 2.21571 11.6896 2.55786 12.1082C2.9 12.5268 3.37634 12.8143 3.90616 12.9219V16.875C3.90616 16.9993 3.95554 17.1185 4.04345 17.2065C4.13136 17.2944 4.25059 17.3438 4.37491 17.3438C4.49923 17.3438 4.61846 17.2944 4.70636 17.2065C4.79427 17.1185 4.84366 16.9993 4.84366 16.875V12.9219C5.37348 12.8143 5.84982 12.5268 6.19196 12.1082C6.5341 11.6896 6.72101 11.1656 6.72101 10.625C6.72101 10.0844 6.5341 9.56035 6.19196 9.14175C5.84982 8.72315 5.37348 8.43571 4.84366 8.32812ZM4.37491 12.0312C4.09678 12.0312 3.82489 11.9488 3.59364 11.7943C3.36238 11.6397 3.18214 11.4201 3.0757 11.1631C2.96927 10.9062 2.94142 10.6234 2.99568 10.3507C3.04994 10.0779 3.18387 9.8273 3.38054 9.63063C3.57721 9.43396 3.82778 9.30003 4.10056 9.24577C4.37335 9.19151 4.6561 9.21936 4.91306 9.32579C5.17002 9.43223 5.38964 9.61247 5.54416 9.84373C5.69868 10.075 5.78116 10.3469 5.78116 10.625C5.78116 10.998 5.633 11.3556 5.36928 11.6194C5.10555 11.8831 4.74787 12.0312 4.37491 12.0312ZM10.4687 4.57812V3.125C10.4687 3.00068 10.4193 2.88145 10.3314 2.79354C10.2435 2.70564 10.1242 2.65625 9.99991 2.65625C9.87559 2.65625 9.75636 2.70564 9.66845 2.79354C9.58054 2.88145 9.53116 3.00068 9.53116 3.125V4.57812C9.00134 4.68571 8.525 4.97315 8.18286 5.39175C7.84071 5.81035 7.65381 6.33436 7.65381 6.875C7.65381 7.41564 7.84071 7.93965 8.18286 8.35825C8.525 8.77685 9.00134 9.06429 9.53116 9.17188V16.875C9.53116 16.9993 9.58054 17.1185 9.66845 17.2065C9.75636 17.2944 9.87559 17.3438 9.99991 17.3438C10.1242 17.3438 10.2435 17.2944 10.3314 17.2065C10.4193 17.1185 10.4687 16.9993 10.4687 16.875V9.17188C10.9985 9.06429 11.4748 8.77685 11.817 8.35825C12.1591 7.93965 12.346 7.41564 12.346 6.875C12.346 6.33436 12.1591 5.81035 11.817 5.39175C11.4748 4.97315 10.9985 4.68571 10.4687 4.57812ZM9.99991 8.28125C9.72178 8.28125 9.44989 8.19877 9.21864 8.04425C8.98738 7.88973 8.80714 7.67011 8.7007 7.41315C8.59427 7.15619 8.56642 6.87344 8.62068 6.60065C8.67494 6.32787 8.80887 6.0773 9.00554 5.88063C9.20221 5.68396 9.45278 5.55003 9.72556 5.49577C9.99835 5.44151 10.2811 5.46936 10.5381 5.57579C10.795 5.68223 11.0146 5.86247 11.1692 6.09373C11.3237 6.32499 11.4062 6.59687 11.4062 6.875C11.4062 7.24796 11.258 7.60565 10.9943 7.86937C10.7306 8.13309 10.3729 8.28125 9.99991 8.28125ZM17.9687 13.125C17.968 12.5849 17.7812 12.0615 17.4396 11.6431C17.0981 11.2247 16.6227 10.9369 16.0937 10.8281V3.125C16.0937 3.00068 16.0443 2.88145 15.9564 2.79354C15.8685 2.70564 15.7492 2.65625 15.6249 2.65625C15.5006 2.65625 15.3814 2.70564 15.2935 2.79354C15.2055 2.88145 15.1562 3.00068 15.1562 3.125V10.8281C14.6263 10.9357 14.15 11.2232 13.8079 11.6418C13.4657 12.0604 13.2788 12.5844 13.2788 13.125C13.2788 13.6656 13.4657 14.1896 13.8079 14.6082C14.15 15.0268 14.6263 15.3143 15.1562 15.4219V16.875C15.1562 16.9993 15.2055 17.1185 15.2935 17.2065C15.3814 17.2944 15.5006 17.3438 15.6249 17.3438C15.7492 17.3438 15.8685 17.2944 15.9564 17.2065C16.0443 17.1185 16.0937 16.9993 16.0937 16.875V15.4219C16.6227 15.3131 17.0981 15.0253 17.4396 14.6069C17.7812 14.1885 17.968 13.6651 17.9687 13.125ZM15.6249 14.5312C15.3468 14.5312 15.0749 14.4488 14.8436 14.2943C14.6124 14.1397 14.4321 13.9201 14.3257 13.6631C14.2193 13.4062 14.1914 13.1234 14.2457 12.8507C14.2999 12.5779 14.4339 12.3273 14.6305 12.1306C14.8272 11.934 15.0778 11.8 15.3506 11.7458C15.6233 11.6915 15.9061 11.7194 16.1631 11.8258C16.42 11.9322 16.6396 12.1125 16.7942 12.3437C16.9487 12.575 17.0312 12.8469 17.0312 13.125C17.0312 13.498 16.883 13.8556 16.6193 14.1194C16.3556 14.3831 15.9979 14.5312 15.6249 14.5312Z" fill="#121212"/>
</svg>
