<svg width="16" height="17" viewBox="0 0 16 17" fill="none" xmlns="http://www.w3.org/2000/svg">
<path d="M3.87493 7.1625V3C3.87493 2.90054 3.83542 2.80516 3.76509 2.73483C3.69477 2.66451 3.59938 2.625 3.49993 2.625C3.40047 2.625 3.30509 2.66451 3.23476 2.73483C3.16444 2.80516 3.12493 2.90054 3.12493 3V7.1625C2.70107 7.24857 2.32 7.47852 2.04628 7.8134C1.77257 8.14828 1.62305 8.56749 1.62305 9C1.62305 9.43251 1.77257 9.85172 2.04628 10.1866C2.32 10.5215 2.70107 10.7514 3.12493 10.8375V14C3.12493 14.0995 3.16444 14.1948 3.23476 14.2652C3.30509 14.3355 3.40047 14.375 3.49993 14.375C3.59938 14.375 3.69477 14.3355 3.76509 14.2652C3.83542 14.1948 3.87493 14.0995 3.87493 14V10.8375C4.29878 10.7514 4.67985 10.5215 4.95357 10.1866C5.22728 9.85172 5.37681 9.43251 5.37681 9C5.37681 8.56749 5.22728 8.14828 4.95357 7.8134C4.67985 7.47852 4.29878 7.24857 3.87493 7.1625ZM3.49993 10.125C3.27742 10.125 3.05992 10.059 2.87491 9.9354C2.6899 9.81179 2.54571 9.63609 2.46056 9.43052C2.37541 9.22495 2.35313 8.99875 2.39654 8.78052C2.43995 8.56229 2.5471 8.36184 2.70443 8.2045C2.86177 8.04717 3.06222 7.94002 3.28045 7.89662C3.49868 7.85321 3.72488 7.87549 3.93045 7.96064C4.13601 8.04578 4.31171 8.18998 4.43533 8.37498C4.55895 8.55999 4.62493 8.7775 4.62493 9C4.62493 9.29837 4.5064 9.58452 4.29542 9.7955C4.08444 10.0065 3.7983 10.125 3.49993 10.125ZM8.37493 4.1625V3C8.37493 2.90054 8.33542 2.80516 8.26509 2.73483C8.19477 2.66451 8.09938 2.625 7.99993 2.625C7.90047 2.625 7.80509 2.66451 7.73476 2.73483C7.66444 2.80516 7.62493 2.90054 7.62493 3V4.1625C7.20107 4.24857 6.82 4.47852 6.54628 4.8134C6.27257 5.14828 6.12305 5.56749 6.12305 6C6.12305 6.43251 6.27257 6.85172 6.54628 7.1866C6.82 7.52148 7.20107 7.75143 7.62493 7.8375V14C7.62493 14.0995 7.66444 14.1948 7.73476 14.2652C7.80509 14.3355 7.90047 14.375 7.99993 14.375C8.09938 14.375 8.19477 14.3355 8.26509 14.2652C8.33542 14.1948 8.37493 14.0995 8.37493 14V7.8375C8.79878 7.75143 9.17985 7.52148 9.45357 7.1866C9.72728 6.85172 9.87681 6.43251 9.87681 6C9.87681 5.56749 9.72728 5.14828 9.45357 4.8134C9.17985 4.47852 8.79878 4.24857 8.37493 4.1625ZM7.99993 7.125C7.77742 7.125 7.55992 7.05902 7.37491 6.9354C7.1899 6.81179 7.04571 6.63609 6.96056 6.43052C6.87541 6.22495 6.85313 5.99875 6.89654 5.78052C6.93995 5.56229 7.0471 5.36184 7.20443 5.2045C7.36177 5.04717 7.56222 4.94002 7.78045 4.89662C7.99868 4.85321 8.22488 4.87549 8.43045 4.96064C8.63601 5.04578 8.81171 5.18998 8.93533 5.37498C9.05895 5.55999 9.12493 5.7775 9.12493 6C9.12493 6.29837 9.0064 6.58452 8.79542 6.7955C8.58444 7.00647 8.2983 7.125 7.99993 7.125ZM14.3749 11C14.3744 10.5679 14.225 10.1492 13.9517 9.81449C13.6785 9.47976 13.2982 9.24949 12.8749 9.1625V3C12.8749 2.90054 12.8354 2.80516 12.7651 2.73483C12.6948 2.66451 12.5994 2.625 12.4999 2.625C12.4005 2.625 12.3051 2.66451 12.2348 2.73483C12.1644 2.80516 12.1249 2.90054 12.1249 3V9.1625C11.7011 9.24857 11.32 9.47852 11.0463 9.8134C10.7726 10.1483 10.623 10.5675 10.623 11C10.623 11.4325 10.7726 11.8517 11.0463 12.1866C11.32 12.5215 11.7011 12.7514 12.1249 12.8375V14C12.1249 14.0995 12.1644 14.1948 12.2348 14.2652C12.3051 14.3355 12.4005 14.375 12.4999 14.375C12.5994 14.375 12.6948 14.3355 12.7651 14.2652C12.8354 14.1948 12.8749 14.0995 12.8749 14V12.8375C13.2982 12.7505 13.6785 12.5202 13.9517 12.1855C14.225 11.8508 14.3744 11.4321 14.3749 11ZM12.4999 12.125C12.2774 12.125 12.0599 12.059 11.8749 11.9354C11.6899 11.8118 11.5457 11.6361 11.4606 11.4305C11.3754 11.225 11.3531 10.9988 11.3965 10.7805C11.44 10.5623 11.5471 10.3618 11.7044 10.2045C11.8618 10.0472 12.0622 9.94003 12.2804 9.89662C12.4987 9.85321 12.7249 9.87549 12.9304 9.96064C13.136 10.0458 13.3117 10.19 13.4353 10.375C13.5589 10.56 13.6249 10.7775 13.6249 11C13.6249 11.2984 13.5064 11.5845 13.2954 11.7955C13.0844 12.0065 12.7983 12.125 12.4999 12.125Z" fill="#121212"/>
</svg>
